# xmcd CD database file
#
# Track frame offsets:
#	150
#	10753
#	30517
#	54018
#	66366
#	80717
#	100464
#	112011
#	133816
#	157254
#	175343
#	188265
#	206172
#	235497
#	257988
#
# Disc length: 4225 seconds
#
# Revision: 0
# Processed by: cddbd v1.5.2PL0 Copyright (c) Steve Scherf et al.
# Submitted via: CDex 1.70beta2
#
DISCID=d4107f0f
DTITLE=Northern Blues Artist Sampler-2008 - The Future of the Blues-Vol. 3
DYEAR=2008
DGENRE=Blues
TTITLE0=Blues for Howard-Watermelon Slim
TTITLE1=Let's Make a Better World-Doug Cox and Salil Bhatt
TTITLE2=Penny Waiting on Change-Homemade Jamz Blues Band
TTITLE3=Tell Me Why-Moreland and Arbuckle
TTITLE4=Baby Doll-Samuel James
TTITLE5=Blue Freightliner-Watermelon Slim
TTITLE6=Breathless Girl-Paul Reddick
TTITLE7=Mr. Blues-Eddie Turner
TTITLE8=Diddle It-Carlos del Junco
TTITLE9=Tickets on Yourself-JW-Jones
TTITLE10=Going, Goin', Gone-The Twisters
TTITLE11=Chesterfield County Jail-Mason Casey
TTITLE12=Dumpster Blues-Watermelon Slim
TTITLE13=Hattie Mae-Zac Harmon
TTITLE14=Phunkville-Mem Shannon
EXTD=
EXTT0=
EXTT1=
EXTT2=
EXTT3=
EXTT4=
EXTT5=
EXTT6=
EXTT7=
EXTT8=
EXTT9=
EXTT10=
EXTT11=
EXTT12=
EXTT13=
EXTT14=
PLAYORDER=
